<svg id="Layer_1" height="512" viewBox="0 0 512 512" width="512" xmlns="http://www.w3.org/2000/svg" data-name="Layer 1"><path d="m58.16 107.94c11.668-19.431 26.414-28.426 41.032-31.711-21.945-4.266-51.015-1.623-71.032 31.711-36.048 60.014 11.9 271.625 93.011 242.393-62.211-23.504-94.346-190.225-63.011-242.393z" fill="#d4e1f4"/><path d="m444.718 70.618c-23.536-5.764-46.141 2.528-57.04 7.675a70.649 70.649 0 0 0 -66.293-46.213h-128.562a70.627 70.627 0 0 0 -66.515 46.842c-11.3-5.359-35.261-14.3-59.813-8.229-17.9 4.427-32.526 15.918-43.48 34.158-28.279 47.082-7.866 175.169 36.4 228.42 14.231 17.118 30.067 25.844 46.547 25.844a48.388 48.388 0 0 0 9.559-.978l-.464 17.808a61.747 61.747 0 0 0 61.758 63.329h59.048v-12h-59.046a49.748 49.748 0 0 1 -49.762-51.016l7.175-275.158a58.58 58.58 0 0 1 58.593-57.02h128.562a58.578 58.578 0 0 1 58.592 57.02l7.176 275.156a49.748 49.748 0 0 1 -49.762 51.016h-58.813v12h58.813a61.747 61.747 0 0 0 61.758-63.329l-.419-16.063a47.862 47.862 0 0 0 9.422.96c16.142 0 31.593-8.474 45.41-25.095 20.845-25.075 37.61-69.105 44.845-117.782 7.194-48.4 3.538-90.53-9.781-112.7-11.161-18.586-25.934-30.242-43.908-34.645zm-376.072 254.982c-19.633-23.618-35.663-65.138-42.882-111.069-6.989-44.466-4.1-84.126 7.538-103.5 9.236-15.377 21.348-25.022 36-28.668 22.407-5.573 45.291 4.118 53.9 8.427a71.331 71.331 0 0 0 -.973 10l-6.382 244.94c-16.495 4.476-32.357-2.274-47.201-20.13zm417.892-109.4c-6.927 46.6-22.7 88.418-42.2 111.876-14.349 17.261-29.782 23.769-45.927 19.4l-6.433-246.688a71.32 71.32 0 0 0 -1.099-10.688c8.363-4.167 29.739-13.07 51.063-7.81 14.716 3.629 26.961 13.435 36.4 29.145 11.751 19.572 14.892 59.714 8.196 104.765z" fill="#0635c9"/><g fill="#1ae5be"><path d="m182.277 130.484a34.518 34.518 0 1 0 34.546 34.516 34.572 34.572 0 0 0 -34.546-34.516zm0 57.035a22.518 22.518 0 1 1 22.546-22.519 22.558 22.558 0 0 1 -22.546 22.519z"/><path d="m333.338 105.479-54.554-5.951a27.308 27.308 0 0 0 -43.128 0l-53.81 5.948a59.528 59.528 0 1 0 48.019 95.3v37.477h-23.465a61.332 61.332 0 1 0 0 122.664h23.463v91.639a27.357 27.357 0 0 0 54.713 0v-91.631h23.434a61.332 61.332 0 1 0 0-122.664h-23.432v-38.5a59.549 59.549 0 1 0 48.76-94.281zm-103.473 217.707h-39.154a1.687 1.687 0 0 1 -1.69-1.681v-43.823a1.689 1.689 0 0 1 1.69-1.683h39.154zm0-59.187h-39.154a13.7 13.7 0 0 0 -13.69 13.683v43.823a13.7 13.7 0 0 0 13.69 13.681h39.154v13.739h-23.465a49.332 49.332 0 1 1 0-98.664h23.463zm-47.588-51.465a47.533 47.533 0 1 1 47.588-47.534 47.613 47.613 0 0 1 -47.588 47.534zm47.588-96.2v12.885a60.031 60.031 0 0 0 -16.723-15.124l17.034-1.883a27.47 27.47 0 0 0 -.311 4.121zm42.713 336.231a15.357 15.357 0 0 1 -30.713 0v-336.232a15.357 15.357 0 0 1 30.713 0zm35.434-202.3a49.332 49.332 0 1 1 0 98.664h-23.434v-13.743h39.122a13.7 13.7 0 0 0 13.691-13.681v-43.823a13.7 13.7 0 0 0 -13.691-13.682h-39.122v-13.739zm-23.434 72.925v-47.19h39.122a1.689 1.689 0 0 1 1.691 1.683v43.823a1.687 1.687 0 0 1 -1.691 1.681zm-.312-210.99 17.72 1.934a60.032 60.032 0 0 0 -17.408 16.112v-13.91a27.514 27.514 0 0 0 -.312-4.136zm48.644 100.334a47.533 47.533 0 1 1 47.59-47.534 47.614 47.614 0 0 1 -47.59 47.534z"/><path d="m332.91 130.484a34.518 34.518 0 1 0 34.546 34.516 34.571 34.571 0 0 0 -34.546-34.516zm0 57.035a22.518 22.518 0 1 1 22.546-22.519 22.558 22.558 0 0 1 -22.546 22.519z"/></g></svg>