<svg id="Layer_1" height="512" viewBox="0 0 512 512" width="512" xmlns="http://www.w3.org/2000/svg" data-name="Layer 1"><path d="m225.741 440.257c-19.076 4.987-30.291 14.375-30.291 25.73 0 16.39 27.11 29.68 60.55 29.68a121.269 121.269 0 0 0 15-.92c-26.185-3.272-45.55-14.908-45.55-28.76 0-8.663 6.543-16.175 18.108-21.468a91.982 91.982 0 0 0 27.442-.373 91.323 91.323 0 0 1 -14.727-3.695 92.706 92.706 0 0 1 -29.2-158.727c2.4-2.567 4.6-5.17 6.629-7.8a98.537 98.537 0 0 0 6.791-9.985c25.749-43.49 7.6-91.75-4.215-114.835-.654-.087-1.3-.186-1.94-.282a41.463 41.463 0 0 1 -8.265-5.5 9.119 9.119 0 0 1 2.727-15.322 88.276 88.276 0 0 1 -21.3-6.7 8.277 8.277 0 0 0 -5.17-.69 8.5 8.5 0 0 0 -4.02 14.7s47.58 68.83 12.18 128.62a102.168 102.168 0 0 1 -13.42 17.79 92.694 92.694 0 0 0 28.671 158.537z" fill="#d4e1f4"/><path d="m210.02 439.874c-13.236 6.341-20.566 15.578-20.566 26.444 0 10.341 7.491 19.708 21.093 26.376 12.241 6.006 28.384 9.306 45.453 9.306s33.212-3.305 45.453-9.306c13.6-6.668 21.093-16.035 21.093-26.376 0-9.949-7.836-19.355-21.164-26.126a98.695 98.695 0 0 0 17.718-162.806c-24.708-27.353-33.216-58.284-25.29-91.944a124.21 124.21 0 0 1 19.936-43.565l-9.424-7.429a134.082 134.082 0 0 0 -22.082 47.779c-4.943 20.636-6.083 49.4 10.7 79.377-34.9 17.362-63.675 5.881-74.44.133 11.7-22.849 14.2-49.422 7.113-78.26a170.815 170.815 0 0 0 -22.372-51.58l-9.871 6.823a160.705 160.705 0 0 1 20.59 47.619c8.821 35.917 1.744 66.54-21.036 91.03a98.692 98.692 0 0 0 17.1 162.505zm100.526 26.444c0 11.2-22.4 23.682-54.546 23.682s-54.546-12.481-54.546-23.682c0-8.076 9.185-15.347 24.668-19.616a97.891 97.891 0 0 0 59.624.044c14.472 4.688 24.8 12.773 24.8 19.572zm-74.722-185.713a91.327 91.327 0 0 0 19.529 2.109 96.135 96.135 0 0 0 43.982-10.908q2.783 3.993 6.044 7.991c-25.257 11.964-50.046 15.4-73.787 10.2a92.054 92.054 0 0 1 -25.407-9.565q3.361-4.082 6.24-8.378a91.742 91.742 0 0 0 23.399 8.551zm-38.26 8.679a101.546 101.546 0 0 0 30.792 12.288 112 112 0 0 0 24.654 2.7c16.98 0 37.766-3.7 61.023-15.355a86.461 86.461 0 0 1 28.127 63.937c0 47.707-38.651 86.519-86.16 86.519s-86.16-38.812-86.16-86.519a86.465 86.465 0 0 1 27.724-63.57z" fill="#0635c9"/><path d="m322.546 128.376a14.27 14.27 0 0 0 -6.832-12.244 14.645 14.645 0 0 0 -1.848-.956 49.663 49.663 0 0 0 -4.261-12.546 37.981 37.981 0 0 0 -.144-75.961 37.127 37.127 0 0 0 -16.094 3.662c-7.728-12.379-21.349-20.331-35.7-20.331a41.731 41.731 0 0 0 -36.567 21.557 37.824 37.824 0 0 0 -56.422 33.094 37.973 37.973 0 0 0 35.545 37.905 40.468 40.468 0 0 0 -3.675 13.934c-.1.063-.212.12-.316.185a14.505 14.505 0 0 0 -1.9 23.134c11.584 10.214 35.145 16.559 61.49 16.559 26.832 0 49.388-6.277 61.887-17.222a14.3 14.3 0 0 0 4.837-10.77zm-13.085-89.707a25.982 25.982 0 0 1 0 51.964 25.639 25.639 0 0 1 -12.149-3.057 41.946 41.946 0 0 0 -13.349-26.729c2.074-12.46 12.971-22.178 25.498-22.178zm-83.608 53.079a29.834 29.834 0 1 1 29.833 29.974 29.937 29.937 0 0 1 -29.833-29.974zm.129 29.522a76.97 76.97 0 0 1 -15.874-5.37c-.434-.21-.877-.389-1.322-.552a24.389 24.389 0 0 1 6.322-13.4 42.011 42.011 0 0 0 10.874 19.322zm69.935-18.044a33.337 33.337 0 0 1 5.741 12.351 74.254 74.254 0 0 1 -16.3 5.724 42.023 42.023 0 0 0 10.559-18.075zm-38.25-81.226c10.415 0 20.322 5.956 25.825 15.177a38.63 38.63 0 0 0 -10.168 16.523 41.57 41.57 0 0 0 -34.615-.3 37.877 37.877 0 0 0 -8.04-14.155 29.758 29.758 0 0 1 26.998-17.245zm-80.985 42.651a25.848 25.848 0 0 1 51.349-4.358 41.958 41.958 0 0 0 -13.921 26.843 22.957 22.957 0 0 1 -11.571 3.5 25.949 25.949 0 0 1 -25.857-25.985zm133.864 63.725a2.3 2.3 0 0 1 -.737 1.744c-10.189 8.922-30.368 14.248-53.98 14.248-19 0-42.931-4.193-53.554-13.559a2.475 2.475 0 0 1 -.821-1.858 2.419 2.419 0 0 1 1.162-2.112 2.391 2.391 0 0 1 1.257-.375 2.317 2.317 0 0 1 1.019.243c12.866 6.211 31.432 9.774 50.937 9.774 20.06 0 38.27-3.627 51.276-10.211a2.354 2.354 0 0 1 3.441 2.106z" fill="#1ae5be"/></svg>