<svg width="512" height="512" xmlns="http://www.w3.org/2000/svg" xmlns:xlink="http://www.w3.org/1999/xlink" overflow="hidden"><defs><clipPath id="clip0"><rect x="384" y="104" width="512" height="512"/></clipPath></defs><g clip-path="url(#clip0)" transform="translate(-384 -104)"><path d="M689.43 193.76 689.43 268.71 590.57 268.71 590.57 193.76 625 159.23 625 104 655 104 655 159.23Z" stroke="#4472C4" stroke-width="9.66667" fill="#EDF9FF" fill-opacity="0.7"/><path d="M689.43 193.76 689.43 268.71 640 268.71 640 104 655 104 655 159.23Z" stroke="#4472C4" stroke-width="9.66667" fill="#CDEFF9" fill-opacity="0.7"/><path d="M812.14 379.43 812.14 616 777.72 602 728.29 616 699.83 616 640 602 580.17 616 551.71 616 502.28 602 467.86 616 467.86 379.43 496.07 379.43 521.71 353.79 521.71 319.36 590.57 250.5 619.73 250.5 619.73 207 640 186.67 660.27 207 660.27 250.5 689.43 250.5 758.29 319.36 758.28 353.79 783.93 379.43Z" stroke="#4472C4" stroke-width="9.66667" fill="#CDEFF9" fill-opacity="0.7"/><path d="M812.14 379.43 812.14 616 777.72 602 728.29 616 699.83 616 640 602 640 186.67 660.27 207 660.27 250.5 689.43 250.5 758.29 319.36 758.28 353.79 783.93 379.43Z" stroke="#4472C4" stroke-width="9.66667" fill="#A1D3E5" fill-opacity="0.7"/><path d="M461.277 602 452.86 616 414 616 399 602 399 462.714 427.216 462.714 461.277 430.96Z" stroke="#4472C4" stroke-width="9.66667" fill="#CDEFF9" fill-opacity="0.7"/><path d="M818.723 602 827.14 616 866 616 881 602 881 462.714 852.784 462.714 818.723 430.96Z" stroke="#4472C4" stroke-width="9.66667" fill="#A1D3E5" fill-opacity="0.7"/><path d="M384 408.857 414 408.857 414 616 384 616Z" stroke="#4472C4" stroke-width="9.66667" fill="#EDF9FF" fill-opacity="0.7"/><path d="M866 408.857 896 408.857 896 616 866 616Z" stroke="#4472C4" stroke-width="9.66667" fill="#CDEFF9" fill-opacity="0.7"/><path d="M536.714 602 536.714 532.144C536.714 504.87 502.285 482.761 502.285 482.761 502.285 482.761 467.856 504.871 467.856 532.144L467.856 602 482.863 616 521.711 616Z" stroke="#4472C4" stroke-width="9.66667" fill="#FFDA45" fill-opacity="0.7"/><path d="M551.71 256.71 551.71 616 521.71 616 521.71 532.14C521.71 520.94 510.92 509.04 502.28 501.59 493.66 509.03 482.86 520.93 482.86 532.14L482.86 616 452.86 616 452.86 325.57 482.86 325.57 482.86 478.66C488.4 473.95 492.87 470.98 494.18 470.14L502.29 464.93 510.39 470.14C511.7 470.98 516.17 473.95 521.71 478.66L521.71 256.71Z" stroke="#4472C4" stroke-width="9.66667" fill="#EDF9FF" fill-opacity="0.7"/><path d="M812.144 602 812.144 532.144C812.144 504.87 777.715 482.761 777.715 482.761 777.715 482.761 743.286 504.871 743.286 532.144L743.286 602 758.293 616 797.141 616Z" stroke="#4472C4" stroke-width="9.66667" fill="#FFBC36" fill-opacity="0.7"/><path d="M827.14 325.57 827.14 616 797.14 616 797.14 532.14C797.14 521.35 786.74 509.34 777.74 501.57 769.11 509 758.29 520.92 758.29 532.14L758.29 616 728.29 616 728.29 256.71 758.29 256.71 758.29 478.66C763.83 473.95 768.3 470.98 769.61 470.14L777.71 464.93 785.82 470.14C787.13 470.98 791.6 473.95 797.14 478.66L797.14 325.57Z" stroke="#4472C4" stroke-width="9.66667" fill="#CDEFF9" fill-opacity="0.7"/><path d="M684.83 503.07 684.83 602 669.83 616 610.17 616 595.17 602 595.17 503.07C595.17 467.56 640 438.76 640 438.76 640 438.76 684.83 467.56 684.83 503.07Z" stroke="#4472C4" stroke-width="9.66667" fill="#FFDA45" fill-opacity="0.7"/><path d="M684.83 503.07 684.83 602 669.83 616 640 616 640 438.76C640 438.76 684.83 467.56 684.83 503.07Z" stroke="#4472C4" stroke-width="9.66667" fill="#FFBC36" fill-opacity="0.7"/><path d="M673.22 447.19C666.51 440.23 659.8 434.7 655 431.05L655 407.1C674.94 400.73 689.43 382.02 689.43 360 689.43 332.75 667.25 310.57 640 310.57 612.75 310.57 590.57 332.75 590.57 360 590.57 382.02 605.06 400.73 625 407.1L625 431.05C620.2 434.7 613.49 440.23 606.78 447.19 589.12 465.53 580.17 484.33 580.17 503.07L580.17 616 610.17 616 610.17 503.07C610.17 485.33 627.6 467.35 640 457.34 652.41 467.36 669.83 485.34 669.83 503.07L669.83 616 699.83 616 699.83 503.07C699.83 484.33 690.88 465.53 673.22 447.19ZM640 379.43C629.29 379.43 620.57 370.71 620.57 360 620.57 349.29 629.29 340.57 640 340.57 650.71 340.57 659.43 349.29 659.43 360 659.43 370.71 650.71 379.43 640 379.43Z" stroke="#4472C4" stroke-width="9.66667" fill="#EDF9FF" fill-opacity="0.7"/><path d="M699.83 503.07 699.83 616 669.83 616 669.83 503.07C669.83 485.34 652.41 467.36 640 457.34L640 379.43C650.71 379.43 659.43 370.71 659.43 360 659.43 349.29 650.71 340.57 640 340.57L640 310.57C667.25 310.57 689.43 332.75 689.43 360 689.43 382.02 674.94 400.73 655 407.1L655 431.05C659.8 434.7 666.51 440.23 673.22 447.19 690.88 465.53 699.83 484.33 699.83 503.07Z" stroke="#4472C4" stroke-width="9.66667" fill="#CDEFF9" fill-opacity="0.7"/></g></svg>