<svg id="Layer_1" height="512" viewBox="0 0 512 512" width="512" xmlns="http://www.w3.org/2000/svg" data-name="Layer 1"><path d="m228.01 17.12c-14.31 58.56-51.495 70.2-67.085 72.49a8.24 8.24 0 0 0 -6.925 8.28v373.11h-19v25h30v-25h19v-373.11a8.3 8.3 0 0 1 7-8.28c8.986-1.32 25-5.749 40-20.478v-51.662a1.522 1.522 0 0 0 -2.99-.35z" fill="#d4e1f4"/><path d="m205.467 106.493h-30.305a7.577 7.577 0 0 0 -7.568 7.568v16.561a7.577 7.577 0 0 0 7.568 7.568h30.305a7.577 7.577 0 0 0 7.568-7.568v-16.561a7.577 7.577 0 0 0 -7.568-7.568zm-4.432 19.7h-21.441v-7.7h21.441z" fill="#0635c9"/><g fill="#1ae5be"><path d="m230.723 79.328h47.064v12h-47.064z"/><path d="m230.723 109.272h47.201v12h-47.201z"/><path d="m230.723 139.217h47.338v12h-47.338z"/><path d="m230.723 169.162h47.475v12h-47.475z"/><path d="m230.723 199.106h47.612v12h-47.612z"/><path d="m230.723 229.051h47.749v12h-47.749z"/><path d="m230.723 258.996h47.886v12h-47.886z"/><path d="m230.723 288.94h48.023v12h-48.023z"/><path d="m230.723 318.885h48.16v12h-48.16z"/><path d="m230.723 348.83h48.297v12h-48.297z"/><path d="m230.723 378.774h48.434v12h-48.434z"/><path d="m230.723 408.719h48.571v12h-48.571z"/><path d="m230.723 438.664h48.571v12h-48.571z"/></g><path d="m377.279 465.336h-12.972v-334.962a14.4 14.4 0 0 0 -9.576-13.578c-34.87-12.273-62.745-52.387-68.552-71.4a7.443 7.443 0 0 0 -14.564 2.232l1.91 417.7h-36.8v-447.857a7.444 7.444 0 0 0 -14.679-1.777c-4.484 18.351-19.525 61.71-62.213 67.98a14.381 14.381 0 0 0 -12.138 14.22v367.442h-12.974a6 6 0 0 0 -6 6v24.664a6 6 0 0 0 6 6h242.558a6 6 0 0 0 6-6v-24.664a6 6 0 0 0 -6-6zm-93.57-397.021a163.363 163.363 0 0 0 16.551 22.97c10.727 12.471 28.194 28.985 50.486 36.83a2.38 2.38 0 0 1 1.561 2.259v334.962h-66.782zm-124.016 29.579a2.317 2.317 0 0 1 1.882-2.347c13.976-2.053 44.688-11.134 63.148-50.917v420.706h-65.03zm211.586 392.106h-230.558v-12.664h230.558z" fill="#0635c9"/></svg>